<?xml version="1.0" standalone="no"?>
<!DOCTYPE svg PUBLIC "-//W3C//DTD SVG 20010904//EN"
 "http://www.w3.org/TR/2001/REC-SVG-20010904/DTD/svg10.dtd">
<svg version="1.0" xmlns="http://www.w3.org/2000/svg"
 width="1351.000000pt" height="1809.000000pt" viewBox="0 0 1351.000000 1809.000000"
 preserveAspectRatio="xMidYMid meet">

<rect width="100%" height="100%" fill="white"/>
<g transform="translate(0.000000,1809.000000) scale(0.100000,-0.100000)"
fill="#000000" stroke="none">
<path d="M6407 16816 c-587 -701 -1074 -1279 -1082 -1286 -10 -8 -361 135
-1556 636 -1018 427 -1547 644 -1555 638 -7 -5 -508 -584 -1114 -1288 l-1101
-1278 22 -37 c230 -394 1745 -2871 1755 -2871 23 0 3288 772 3296 779 4 3 66
715 137 1581 72 866 134 1599 138 1629 l8 55 869 -1387 c479 -763 876 -1387
883 -1387 7 0 698 171 1534 380 837 210 1523 379 1525 377 3 -2 -436 -563
-975 -1247 l-980 -1243 816 -1220 c449 -671 810 -1218 802 -1215 -8 3 -635
189 -1394 413 -759 224 -1385 409 -1391 412 -5 2 -347 -487 -759 -1088 -412
-600 -751 -1087 -752 -1082 -2 5 -86 596 -187 1312 -101 716 -187 1305 -190
1309 -7 7 -3300 592 -3331 591 -16 0 -165 -272 -812 -1493 -436 -821 -793
-1498 -793 -1505 0 -6 520 -550 1156 -1209 636 -658 1166 -1207 1178 -1220
l22 -22 1363 665 c750 366 1367 665 1371 665 4 0 425 -544 936 -1210 511 -665
935 -1209 942 -1210 11 0 3194 1128 3198 1133 1 1 -18 720 -41 1597 -23 877
-41 1597 -39 1599 2 2 693 199 1535 437 842 238 1533 434 1534 436 5 5 138
3398 134 3401 -2 2 -699 259 -1549 572 -850 313 -1547 570 -1549 572 -3 2 46
736 108 1632 62 895 111 1640 109 1655 -3 27 -55 49 -1562 657 -857 346 -1566
631 -1575 634 -12 3 -310 -346 -1084 -1269z"/>
<path d="M3060 800 l0 -800 100 0 100 0 0 350 0 350 400 0 400 0 0 100 0 100
-400 0 -400 0 0 250 0 250 500 0 500 0 0 100 0 100 -600 0 -600 0 0 -800z"/>
<path d="M5060 800 l0 -800 100 0 100 0 0 800 0 800 -100 0 -100 0 0 -800z"/>
<path d="M6457 805 c219 -437 400 -795 403 -795 3 0 184 358 403 795 l397 795
-113 0 -112 0 -285 -570 c-157 -314 -287 -570 -290 -570 -3 0 -133 256 -290
570 l-285 570 -112 0 -113 0 397 -795z"/>
<path d="M8460 800 l0 -800 600 0 600 0 0 100 0 100 -500 0 -500 0 0 250 0
250 400 0 400 0 0 100 0 100 -400 0 -400 0 0 250 0 250 500 0 500 0 0 100 0
100 -600 0 -600 0 0 -800z"/>
</g>
</svg>
